<svg xmlns="http://www.w3.org/2000/svg" width="34" height="32" viewBox="0 0 34 32">
  <g fill="#fff">
    <path d="M29,26 L7,26 C6.668,26 6.358,25.835 6.172,25.56 C5.986,25.286 5.948,24.936 6.071,24.628 L7.979,19.858 L6.1,2 L0,2 L0,0 L7,0 C7.512,0 7.941,0.386 7.995,0.895 L9.995,19.896 C10.012,20.057 9.989,20.22 9.929,20.372 L8.477,24 L29,24 L29,26"/>
    <path d="M9.204 20.979L8.796 19.021 32 14.187 32 6 8 6 8 4 33 4C33.552 4 34 4.448 34 5L34 15C34 15.474 33.668 15.882 33.204 15.979L9.204 20.979M30 32C27.794 32 26 30.206 26 28 26 25.794 27.794 24 30 24 32.206 24 34 25.794 34 28 34 30.206 32.206 32 30 32L30 32zM30 26C28.897 26 28 26.897 28 28 28 29.103 28.897 30 30 30 31.103 30 32 29.103 32 28 32 26.897 31.103 26 30 26L30 26zM6 32C3.794 32 2 30.206 2 28 2 25.794 3.794 24 6 24 8.206 24 10 25.794 10 28 10 30.206 8.206 32 6 32L6 32zM6 26C4.897 26 4 26.897 4 28 4 29.103 4.897 30 6 30 7.103 30 8 29.103 8 28 8 26.897 7.103 26 6 26L6 26z"/>
  </g>
</svg>
