<?xml version="1.0" encoding="utf-8"?>
<!-- Generator: Adobe Illustrator 17.0.0, SVG Export Plug-In . SVG Version: 6.00 Build 0)  -->
<!DOCTYPE svg PUBLIC "-//W3C//DTD SVG 1.1//EN" "http://www.w3.org/Graphics/SVG/1.1/DTD/svg11.dtd">
<svg version="1.1" id="Layer_1" xmlns="http://www.w3.org/2000/svg" xmlns:xlink="http://www.w3.org/1999/xlink" x="0px" y="0px"
	 width="36px" height="36px" viewBox="0 0 36 36" enable-background="new 0 0 36 36" xml:space="preserve">
<path id="Fill-85" fill="#5805FB" d="M35.68,16.799c-0.292-6.068-3.969-11.834-9.528-14.358c-6-2.725-13.276-1.587-18.277,2.646
	C3.124,9.108,0.893,15.592,2.248,21.673c1.345,6.037,5.951,10.935,11.949,12.538c7.092,1.896,13.57-1.457,17.553-7.294
	c-3.613,4.821-9.06,8.005-15.235,6.938c-6.081-1.05-11.074-5.681-12.464-11.706C2.57,15.732,5.532,9.008,11.257,5.754
	c5.936-3.374,14.159-2.128,18.111,3.658c0.985,1.442,1.677,3.103,2.037,4.809c0.307,1.448,0.178,2.895,0.391,4.34
	c0.188,1.271,1.313,3.041,2.78,2.089C35.846,19.826,35.762,18.11,35.68,16.799C35.663,16.435,35.726,17.528,35.68,16.799"/>
</svg>
