<?xml version="1.0" encoding="utf-8"?>
<!-- Generator: Adobe Illustrator 17.0.0, SVG Export Plug-In . SVG Version: 6.00 Build 0)  -->
<!DOCTYPE svg PUBLIC "-//W3C//DTD SVG 1.1//EN" "http://www.w3.org/Graphics/SVG/1.1/DTD/svg11.dtd">
<svg version="1.1" id="Layer_1" xmlns="http://www.w3.org/2000/svg" xmlns:xlink="http://www.w3.org/1999/xlink" x="0px" y="0px"
	 width="426px" height="426px" viewBox="-469.965 273.723 426 426" enable-background="new -469.965 273.723 426 426"
	 xml:space="preserve">
<g>
	<path fill="#FFFFFF" d="M-220.317,436.803c12.175,0,22.045-9.871,22.045-22.047c0-12.175-9.871-22.046-22.045-22.046
		c-12.178,0-22.049,9.871-22.049,22.046C-242.367,426.932-232.496,436.803-220.317,436.803z"/>
	<path fill="#FFFFFF" d="M-184.054,430.455c-12.659,17.732-29.61,19.785-47.851,8.956c-1.242-0.736-6.751-3.771-7.971-4.496
		c-29.344-17.42-58.654-10.589-78.31,16.938c-8.353,11.708,10.966,22.805,19.225,11.234c10.156-14.222,23.07-18.337,37.193-13.833
		c-7.232,12.552-13.554,25.029-22.476,42.755c-8.924,17.726-28.626,31.881-47.557,20.81c-13.66-7.984-25.979,11.64-12.36,19.599
		c25.846,15.105,56.15,5.83,71.621-13.805c0.537,0.287,1.104,0.546,1.726,0.763c12.638,4.403,29.205,16.126,34.253,20.281
		c5.046,4.155,13.717,25.32,18.866,35.954c6.246,12.904,26.419,3.505,20.149-9.453c-5.837-12.065-15.633-36.146-23.275-42.239
		c-6.13-4.886-18.03-13.98-28.123-19.139c6.829-13.227,13.938-26.311,21.423-39.169c23.858,7.31,46.535-1.301,62.686-23.925
		C-156.475,429.98-175.789,418.883-184.054,430.455z"/>
</g>
<g>
	<path fill="#FFFFFF" d="M-256.43,699.576c-117.173,0-212.5-95.485-212.5-212.853c0-117.368,95.327-212.854,212.5-212.854
		s212.5,95.486,212.5,212.854C-43.93,604.09-139.258,699.576-256.43,699.576z M-256.43,298.869
		c-103.388,0-187.5,84.271-187.5,187.854c0,103.582,84.112,187.853,187.5,187.853s187.5-84.271,187.5-187.853
		C-68.93,383.14-153.043,298.869-256.43,298.869z"/>
</g>
</svg>
